<svg xmlns="http://www.w3.org/2000/svg" fill="none" viewBox="0 0 325 219"><path fill="#FF7A7F" d="M257.678 171.785v25.536H20.894v-130h25.535V46.43H.001l.01.03H0v171.755l257.259-.01v.01h21.312v-46.429h-20.894Z"/><path fill="#FFC8DC" d="M20.893 197.321h59.196v20.893H20.893v-20.893Z"/><path fill="#A3BEDC" d="M20.893 160.178v58.036H0v-58.036h20.893Z"/><path fill="#56B7B5" d="M20.893 102.143v58.035H0v-58.035h20.893Z"/><path fill="#FF9852" d="M80.09 197.321h59.196v20.893H80.089v-20.893Z"/><path fill="#98E1D0" d="M139.286 197.321h59.196v20.893h-59.196v-20.893Z"/><path fill="#8075B3" d="M198.482 197.321h59.196v20.893h-59.196v-20.893ZM278.571 171.785v46.429h-20.893v-46.429h20.893Z"/><path fill="#98E1D0" d="M325 171.785H46.43V0H325v171.785Z"/><path fill="#fff" d="M88.103 99.357h18.331a4.063 4.063 0 0 0 4.066-4.068V76.96a4.063 4.063 0 0 0-4.066-4.068h-18.33a4.063 4.063 0 0 0-4.068 4.068v18.337a4.061 4.061 0 0 0 4.067 4.059ZM185.482 128.607c23.463 0 42.482-19.02 42.482-42.482s-19.019-42.482-42.482-42.482C162.02 43.643 143 62.663 143 86.125s19.02 42.482 42.482 42.482ZM264.531 99.357h18.331a4.064 4.064 0 0 0 4.067-4.068V76.96a4.064 4.064 0 0 0-4.067-4.068h-18.331a4.063 4.063 0 0 0-4.066 4.068v18.337a4.06 4.06 0 0 0 4.066 4.059Z"/></svg>